<?xml version="1.0" encoding="UTF-8" standalone="no"?>
<!-- Created with Inkscape (http://www.inkscape.org/) -->

<svg
   xmlns:dc="http://purl.org/dc/elements/1.1/"
   xmlns:cc="http://creativecommons.org/ns#"
   xmlns:rdf="http://www.w3.org/1999/02/22-rdf-syntax-ns#"
   xmlns:svg="http://www.w3.org/2000/svg"
   xmlns="http://www.w3.org/2000/svg"
   xmlns:sodipodi="http://sodipodi.sourceforge.net/DTD/sodipodi-0.dtd"
   xmlns:inkscape="http://www.inkscape.org/namespaces/inkscape"
   id="svg2"
   version="1.1"
   inkscape:version="0.48.4 r9939"
   width="300"
   height="300"
   sodipodi:docname="d63a9e89470e5f0f36266e05c8e1786f.jpg">
  <metadata
     id="metadata8">
    <rdf:RDF>
      <cc:Work
         rdf:about="">
        <dc:format>image/svg+xml</dc:format>
        <dc:type
           rdf:resource="http://purl.org/dc/dcmitype/StillImage" />
        <dc:title></dc:title>
      </cc:Work>
    </rdf:RDF>
  </metadata>
  <defs
     id="defs6" />
  <sodipodi:namedview
     pagecolor="#ffffff"
     bordercolor="#666666"
     borderopacity="1"
     objecttolerance="10"
     gridtolerance="10"
     guidetolerance="10"
     inkscape:pageopacity="0"
     inkscape:pageshadow="2"
     inkscape:window-width="1920"
     inkscape:window-height="1014"
     id="namedview4"
     showgrid="false"
     inkscape:zoom="0.78666667"
     inkscape:cx="-22.881356"
     inkscape:cy="150"
     inkscape:window-x="0"
     inkscape:window-y="27"
     inkscape:window-maximized="1"
     inkscape:current-layer="svg2" />
  <path
     style="fill:#4d4d4d"
     d="m 97.130115,284.30912 c -7.36503,-7.58018 -15.74832,-18.47446 -19.46061,-25.28952 l -2.45124,-4.5 5.17758,0.38868 c 4.72527,0.35472 4.93734,0.4712 2.42758,1.33333 -5.77917,1.98521 -2.29769,8.61519 8.30469,15.81513 10.211195,6.93429 23.434315,11.03801 35.828855,11.1193 7.59731,0.0498 14.07383,-1.66041 15.59234,-4.11742 1.20475,-1.94932 -2.33392,-4.79375 -9.83905,-7.90874 -6.51659,-2.7047 -39.400595,-13.38052 -44.136835,-14.32906 -1.1,-0.2203 2.95,-0.73288 9,-1.13907 6.050005,-0.40619 12.575005,-1.08925 14.500005,-1.51791 3.32953,-0.74141 3.84949,-0.45531 10.67547,5.87398 5.99236,5.55634 14.6442,11.90603 23.9856,17.60334 1.64951,1.00603 1.4269,1.29679 -2.16107,2.82272 -10.68362,4.54363 -23.5282,8.06225 -36.42325,9.97772 l -4.42325,0.65704 -6.596815,-6.78952 z m 85.443315,4.72977 c -9.32366,-1.87731 -18.55128,-4.7164 -26.75252,-8.23105 l -4.75252,-2.0367 7.25252,-4.46636 c 8.27194,-5.09416 14.21936,-9.66407 20.90036,-16.05954 l 4.64783,-4.4492 8.26116,1.11178 c 4.54364,0.61148 11.67712,1.14755 15.85217,1.19128 l 7.591,0.0795 -6,1.31384 c -3.3,0.72261 -15.13524,4.33502 -26.30053,8.02758 -19.85136,6.56519 -26.19947,9.74888 -26.19947,13.1395 0,4.29606 18.60363,6.05435 30.5,2.88264 12.81544,-3.41673 26.47363,-11.50776 30.54431,-18.09425 2.26826,-3.67014 2.04819,-6.42831 -0.51293,-6.42831 -0.84226,0 -1.53138,-0.45 -1.53138,-1 0,-0.55 1.8,-1 4,-1 2.2,0 4,0.2587 4,0.57489 0,0.3162 -2.07867,3.8037 -4.61928,7.75 -8.52409,13.24045 -22.07579,27.74021 -25.78681,27.59082 -1.15165,-0.0464 -6.14391,-0.89975 -11.09391,-1.89642 z m -39.08726,-16.34876 c -7.32037,-4.56227 -15.18155,-10.64926 -20.77081,-16.08305 l -4.85807,-4.72294 9.54432,-3.2806 c 5.24937,-1.80433 12.50644,-5.13785 16.12684,-7.40783 l 6.58254,-4.12724 5.68264,3.63515 c 5.79171,3.70491 21.02189,10.31598 23.76532,10.31598 2.6276,0 1.69094,1.51433 -4.73553,7.65609 -7.97573,7.62238 -22.60621,17.54709 -25.45034,17.26444 -0.43981,-0.0437 -3.08893,-1.50621 -5.88692,-3.25 z m 16.78804,-8.79374 c 5.58408,-1.18359 12.11503,-4.06875 15.04922,-6.64829 2.89201,-2.54244 2.14662,-5.15339 -2,-7.0056 -3.09577,-1.38281 -7.23923,-1.67921 -23.75,-1.69897 -21.17254,-0.0253 -25.54851,0.7739 -26.32542,4.80809 -1.46302,7.59684 20.89432,13.96404 37.0262,10.54477 z M 87.573425,253.35124 c -12.84366,-1.0669 -12.07853,-0.61153 -15.34907,-9.1351 -5.38293,-14.02882 -8.43584,-26.82836 -4.14244,-17.36741 3.03908,6.69691 13.24692,16.21665 22.03737,20.55184 12.359635,6.09541 22.889345,5.91124 21.246345,-0.37159 -0.72395,-2.76841 -9.63591,-10.74188 -21.183935,-18.95313 -16.55405,-11.77081 -22.32742,-13.78412 -23.81894,-8.30625 -0.71627,2.63064 -0.77276,2.57638 -1.30149,-1.25 -0.304,-2.2 -0.4853,-4.12782 -0.4029,-4.28405 0.0824,-0.15623 4.147,0.88042 9.03244,2.30367 4.88544,1.42325 12.55852,2.85283 17.05129,3.17685 l 8.16868,0.58912 1.697885,4.6072 c 2.32105,6.29821 6.92467,14.58185 11.53991,20.76462 2.96903,3.97744 3.51802,5.28473 2.39953,5.71394 -3.1559,1.21103 -20.671325,2.48391 -26.974675,1.96029 z m 109.500005,-0.33018 c -14.05166,-1.13481 -13.70868,-0.52962 -6.49821,-11.46604 3.41653,-5.18199 7.23116,-12.14737 8.47697,-15.47861 l 2.26509,-6.05681 5.74985,0 c 4.93929,0 20.8121,-3.33288 26.2563,-5.51315 1.4911,-0.59715 1.73999,-0.13022 1.68232,3.15616 -0.0633,3.60749 -0.1409,3.70466 -1.19962,1.5021 -1.91705,-3.98825 -7.4134,-2.4009 -19.12926,5.52454 -17.37326,11.75249 -26.60344,20.07574 -26.60344,23.98945 0,2.37254 4.0195,3.56891 9.63388,2.86744 12.25255,-1.53085 28.64053,-13.47294 33.8523,-24.66851 3.02753,-6.50351 3.19642,-4.78109 0.48915,4.98843 -3.173,11.45017 -7.38759,19.98789 -10.14481,20.55091 -4.80053,0.98025 -16.61393,1.26766 -24.83052,0.60409 z M 61.073425,250.40758 c -9.47514,-2.79302 -26.01641,-9.77093 -29.12042,-12.2844 -3.63735,-2.94535 -6.18854,-30.11123 -4.12591,-43.93415 l 0.49698,-3.33057 3.62467,3.43962 c 5.6462,5.35793 13.91345,11.17447 22.27807,15.67405 l 7.6534,4.11699 1.14962,6.71524 c 1.45271,8.48563 4.55655,19.05694 7.64724,26.04554 1.31799,2.98021 2.39635,5.58757 2.39635,5.79413 0,0.86596 -4.01159,0.11832 -12,-2.23645 z m 6.41821,0.005 c 4.52406,-1.73604 0.39874,-9.58109 -18.23601,-34.67909 -9.21109,-12.40583 -15.97218,-19.71389 -18.23844,-19.71389 -2.36445,0 -3.30418,4.95965 -2.13633,11.27492 3.03218,16.39683 19.31813,37.39178 32.69257,42.14546 2.2,0.78195 4.07569,1.45725 4.16821,1.50067 0.0925,0.0434 0.88002,-0.19419 1.75,-0.52804 z m 159.581795,1.56718 c 0,-0.57191 0.85147,-2.70941 1.89215,-4.75 2.23031,-4.37323 6.73659,-19.00455 7.61045,-24.71016 1.24619,-8.13663 1.48502,-8.59693 5.28299,-10.18169 5.44195,-2.27074 16.88301,-9.8181 23.38545,-15.42677 3.11908,-2.69035 5.89118,-4.89154 6.16024,-4.89154 1.32121,0 1.78235,18.11007 0.72282,28.38678 -1.75676,17.03938 -1.50414,16.51063 -10.03793,21.0093 -6.93012,3.65328 -22.7405,9.63075 -25.34422,9.58196 -0.64457,-0.0121 0.62805,-0.84572 2.82805,-1.85253 9.58848,-4.38808 21.45956,-17.00557 26.9815,-28.67798 3.94133,-8.3313 6.08366,-17.91172 4.68954,-20.97148 -2.64215,-5.79889 -6.73773,-2.23794 -23.70911,20.61412 -13.79173,18.57066 -18.51496,26.93608 -16.54719,29.3071 0.73158,0.8815 2.06255,1.64759 2.9577,1.70241 0.93093,0.057 0.5575,0.44237 -0.87244,0.90032 -3.63691,1.16474 -6,1.14905 -6,-0.0398 z M 110.73516,241.7696 c -4.79231,-7.23416 -11.335875,-20.49945 -10.47003,-21.22513 0.16957,-0.14212 3.8018,-0.76651 8.07164,-1.38754 6.60854,-0.96119 13.20567,-2.81138 19.75045,-5.53911 1.05489,-0.43965 2.11591,0.50793 3.5,3.12578 1.09242,2.06618 5.28829,7.22747 9.32416,11.46953 4.03588,4.24206 7.05359,8.17294 6.70604,8.7353 -1.8448,2.98494 -24.63909,13.07117 -29.54009,13.07117 -1.24257,0 -3.724,-2.78825 -7.34217,-8.25 z m 31.28451,-2.2222 c 8.32857,-4.30687 -1.56321,-11.99492 -22.48334,-17.47442 -8.82307,-2.31098 -11.73212,-2.51485 -14.52864,-1.0182 -7.196545,3.85147 6.07803,17.00451 20.11104,19.92693 5.72628,1.19252 13.01784,0.57371 16.90094,-1.43431 z m 31.01057,8.11998 c -6.37631,-2.25112 -16.64591,-7.36265 -20.24773,-10.07797 -1.65505,-1.24771 -1.35159,-1.77139 4,-6.9029 3.18501,-3.05402 7.55215,-8.16958 9.70479,-11.36792 l 3.91387,-5.81514 8.08613,2.73678 c 4.44736,1.50522 9.43612,2.7843 11.08612,2.84238 1.80252,0.0635 -0.19327,0.83177 -5,1.92484 -16.88951,3.84076 -29.49999,10.04054 -29.49999,14.50329 0,6.22414 14.44901,8.16684 26.37726,3.54647 10.97604,-4.25154 19.17745,-14.8678 13.87274,-17.95751 -1.45312,-0.84637 -1.20618,-1.02444 1.45564,-1.04969 l 3.20564,-0.0304 -1.49626,4.24085 c -3.69561,10.47447 -13.94238,25.77928 -17.23197,25.73806 -0.92568,-0.0116 -4.62749,-1.06061 -8.22624,-2.33113 z m -31.11615,-21.47906 c -4.03785,-4.29227 -8.23573,-9.64244 -9.32861,-11.88928 -1.89796,-3.90201 -2.0997,-4.02694 -4.49955,-2.7865 -4.50658,2.32936 -16.38938,5.42172 -21.97087,5.71765 l -5.45836,0.28941 -1.297495,-5.5 c -0.72294,-3.06453 -1.18419,-9.75273 -1.04164,-15.1039 l 0.25586,-9.60391 -5.50399,-1.13448 c -5.29119,-1.09063 -17.60288,-6.47878 -21.25093,-9.30037 -1.6421,-1.27008 -1.49123,-1.88547 2.34682,-9.57247 2.25596,-4.51833 6.00212,-10.25583 8.32481,-12.75 l 4.22306,-4.53487 -4.22306,-4.53487 c -2.32269,-2.49417 -6.06885,-8.23167 -8.32481,-12.75 -3.83805,-7.687 -3.98892,-8.30239 -2.34682,-9.57247 3.60615,-2.78919 15.30964,-7.90508 20.93292,-9.15032 l 5.822,-1.28925 -0.25586,-9.60154 c -0.14248,-5.347298 0.31885,-12.038492 1.04121,-15.101552 l 1.297055,-5.5 4.4588,0.28909 c 8.90207,0.57716 18.3437,3.18925 24.95879,6.90501 0.275,0.15447 1.39231,-1.58016 2.48292,-3.85472 2.32916,-4.85771 15.06352,-18.83938 17.1587,-18.83938 3.28371,0 19.35838,18.17595 19.35838,21.8889 0,0.54925 1.9619,0.1308 4.35978,-0.9299 5.00215,-2.21269 14.01253,-4.52368 20.82206,-5.34047 4.67498,-0.56076 4.6837,-0.55613 5.94698,3.15994 0.71472,2.10243 1.2882,8.722894 1.31815,15.217212 l 0.053,11.49568 6.12881,1.60335 c 6.1915,1.61975 17.39418,6.53061 20.62611,9.04175 1.64317,1.27671 1.49984,1.87441 -2.25094,9.38636 -2.20322,4.41254 -6.04054,10.239 -8.52737,12.94768 -3.55402,3.87106 -4.21343,5.09728 -3.08171,5.73062 3.55229,1.98796 14.6051,20.28738 14.6051,24.18071 0,2.0333 -14.70328,9.27218 -21.8138,10.7396 l -5.6862,1.17348 0.26241,9.10254 c 0.14433,5.0064 -0.30908,11.80255 -1.00757,15.10255 l -1.26998,6 -5.49243,-0.29601 c -6.45776,-0.34802 -15.96319,-2.66004 -21.05952,-5.12231 l -3.61429,-1.74624 -2.30713,4.34897 c -2.45795,4.63329 -13.03177,16.72089 -16.03096,18.32601 -1.48969,0.79726 -3.05823,-0.37688 -9.13987,-6.8417 z m 14.62014,-5.60689 c 5.72481,-1.72291 9.5392,-5.03581 9.5392,-8.28504 0,-3.65941 -6.60614,-6.23287 -16,-6.23287 -9.49892,0 -16,2.56724 -16,6.31829 0,2.86797 4.80004,7.34091 8.82707,8.22555 1.47011,0.32295 3.12293,0.73729 3.67293,0.92076 2.1884,0.73001 5.40551,0.42426 9.9608,-0.94669 z m 34.21713,-11.6718 c 4.53933,-2.80546 8.05861,-7.27862 9.49293,-12.06596 1.14128,-3.80928 1.06847,-4.21185 -1.0759,-5.94826 -2.64666,-2.14314 -5.18343,-1.79398 -12.11476,1.66744 -5.80054,2.89672 -13.9802,11.55105 -13.9802,14.79146 0,4.24963 3.79501,5.8485 10.47015,4.41116 2.18359,-0.47018 5.42709,-1.75531 7.20778,-2.85584 z m -64.87793,1.90997 c 2.32564,-2.32564 1.2487,-5.83362 -3.27593,-10.67081 -4.47755,-4.78686 -11.6908,-9.32785 -16.67154,-10.49528 -1.81179,-0.42467 -3.37347,-0.0327 -4.94749,1.2419 -2.152505,1.74298 -2.220335,2.1285 -1.057435,6.0099 2.524485,8.42595 11.461785,15.11199 20.202395,15.1135 2.5025,4.4e-4 5.09,-0.53921 5.75,-1.19921 z m 19.58291,-13.9809 c -0.22854,-0.3745 0.0579,-0.97349 0.6365,-1.3311 1.05341,-0.65104 1.0906,-8.50026 0.0388,-8.2017 -0.30704,0.0872 -1.85065,-0.70432 -3.43023,-1.75884 -4.03508,-2.69379 -11.73318,-3.57155 -13.77571,-1.57074 -2.00905,1.96803 -3.87275,5.52957 -3.78204,7.22754 0.0387,0.72366 0.45702,0.41574 0.92971,-0.68426 0.6269,-1.45887 0.87845,-1.57367 0.92971,-0.42431 0.0871,1.95351 3.73903,5.46982 7.0708,6.8083 2.72182,1.09343 12.05682,1.04022 11.3824,-0.0649 z m 21.51348,-0.26552 c 5.81135,-3.00517 8.41568,-10.68498 4.08909,-12.05819 -1.10799,-0.35166 -1.80675,-0.97556 -1.55281,-1.38644 0.44197,-0.71513 -3.50364,-0.49853 -8.10561,0.44497 -1.19511,0.24502 -3.55942,1.61215 -5.25402,3.03807 -2.46339,2.07281 -2.9481,2.22323 -2.41774,0.75029 0.36485,-1.01325 0.30974,-1.52286 -0.12247,-1.13245 -1.105,0.99813 -1.66572,6.77305 -0.79107,8.14711 0.40018,0.62868 0.79076,1.48056 0.86793,1.89306 0.0772,0.4125 0.19665,0.8625 0.2655,1 0.55282,1.10393 10.57641,0.56783 13.0212,-0.69642 z m -16.39639,-3.55358 c 0.33992,-0.55 0.14148,-1 -0.44098,-1 -0.58246,0 -1.05902,0.45 -1.05902,1 0,0.55 0.19844,1 0.44097,1 0.24254,0 0.71911,-0.45 1.05903,-1 z m -30.25,-7.66228 c -0.6875,-0.27741 -1.8125,-0.27741 -2.5,0 -0.6875,0.27741 -0.125,0.50439 1.25,0.50439 1.375,0 1.9375,-0.22698 1.25,-0.50439 z m 62,0 c -0.6875,-0.27741 -1.8125,-0.27741 -2.5,0 -0.6875,0.27741 -0.125,0.50439 1.25,0.50439 1.375,0 1.9375,-0.22698 1.25,-0.50439 z m -84.255715,-3.32394 c 3.764775,-9.08898 -6.67602,-31.39522 -13.08868,-27.96327 -7.08524,3.79191 -3.9843,23.88154 4.48324,29.04489 4.55901,2.78001 7.14029,2.45557 8.60544,-1.08162 z m 28.005715,1.98622 c 0,-0.55 -0.19844,-1 -0.44098,-1 -0.24254,0 -0.7191,0.45 -1.05902,1 -0.33992,0.55 -0.14148,1 0.44098,1 0.58245,0 1.05902,-0.45 1.05902,-1 z m 50,0.55902 c 0,-0.24254 -0.45,-0.7191 -1,-1.05902 -0.55,-0.33992 -1,-0.14148 -1,0.44098 0,0.58246 0.45,1.05902 1,1.05902 0.55,0 1,-0.19844 1,-0.44098 z m 34.42006,-1.50961 c 4.5568,-2.81626 7.73417,-9.10163 8.32558,-16.46943 1.37381,-17.11468 -10.33486,-16.36263 -15.70023,1.00844 -4.41195,14.28421 -1.29492,20.81908 7.37465,15.46099 z m -87.62007,-0.24941 c 3.26656,-3.26655 -0.16475,-13.05256 -5.46245,-15.57886 -2.32096,-1.10678 -2.96299,-1.84109 -2.09281,-2.39355 0.99417,-0.63119 0.98494,-0.80015 -0.0444,-0.81228 -2.00743,-0.0237 -7.20034,2.91121 -7.20034,4.06939 0,0.56833 -0.38735,0.79394 -0.86078,0.50134 -1.12096,-0.69279 0.16684,6.27498 1.67937,9.08641 2.84862,5.29489 10.87168,8.23727 13.98141,5.12755 z m 65.10682,-1.37505 c 1.94689,-1.6382 3.61199,-4.43287 4.57673,-7.6815 0.83405,-2.80855 1.51645,-5.23394 1.51645,-5.38977 0,-0.87344 -4.86469,-2.66803 -7.46454,-2.75368 -2.39409,-0.0789 -3.82781,0.81085 -6.78546,4.21082 -3.07555,3.53551 -3.75,5.07924 -3.75,8.58333 0,5.21657 0.35346,5.60585 5.08994,5.60585 2.57729,0 4.71733,-0.80839 6.81689,-2.57505 z m -33.0956,-5.70335 c 1.57715,-3.30679 0.2825,-8.42182 -2.84887,-11.25567 -1.88062,-1.70194 -2.04601,-1.70019 -3.97099,0.0419 -1.10474,0.99979 -2.51986,3.52414 -3.1447,5.60967 -0.95518,3.18808 -0.86438,4.20653 0.57019,6.39596 2.37351,3.62241 7.49492,3.19073 9.39437,-0.79184 z m -15.88865,-2.18155 c 2.96978,-1.53574 4.04116,-3.96301 4.06379,-9.20672 0.0166,-3.84053 -1.41984,-4.5068 -5.84258,-2.71007 -4.49402,1.82568 -5.83556,0.74721 -2.69317,-2.16506 3.52836,-3.26997 3.30597,-5.99881 -0.59982,-7.36037 -1.73208,-0.60381 -4.12222,-1.09783 -5.31144,-1.09783 -2.96618,0 -6.53934,3.56035 -6.53934,6.5159 0,3.08683 4.08506,5.93055 7.34425,5.11255 3.28405,-0.82425 3.70879,3.5e-4 2.04778,3.97571 -1.36522,3.26742 -1.31277,3.56602 1.03966,5.91843 2.90936,2.90937 2.85024,2.9001 6.49087,1.01746 z m 28.24869,-0.19504 c 3.94905,-3.57383 1.18043,-9.75239 -5.50518,-12.28555 -4.09032,-1.54982 -4.9637,-0.50865 -4.4097,5.2569 0.71273,7.41752 5.63189,10.90471 9.91488,7.02865 z M 110.07343,163.0196 c 0,-0.55 -0.19844,-1 -0.44098,-1 -0.24254,0 -0.7191,0.45 -1.05902,1 -0.33992,0.55 -0.14148,1 0.44098,1 0.58245,0 1.05902,-0.45 1.05902,-1 z m 82,0.55902 c 0,-1.05548 -1.91911,-1.49891 -2.48992,-0.57533 -0.34546,0.55897 0.0734,1.01631 0.9309,1.01631 0.85746,0 1.55902,-0.19844 1.55902,-0.44098 z m -15.5567,-2.78153 c 2.2318,-3.18634 1.93069,-5.33815 -1.07816,-7.70491 -3.12207,-2.45582 -5.20968,-2.5822 -9.94834,-0.60227 -3.21182,1.34199 -3.419,1.66928 -2.37368,3.75 3.13979,6.24979 10.46881,8.74228 13.40017,4.55718 z m 20.18993,-0.4776 c -0.24917,-0.24916 0.4373,-2.46577 1.52549,-4.92579 2.26693,-5.12478 1.85526,-8.81531 -1.45236,-13.02028 -1.84325,-2.34331 -1.89812,-2.64138 -0.37893,-2.05841 1.08233,0.41533 1.53387,0.28919 1.15562,-0.32283 -0.79955,-1.29369 -6.99682,-0.62101 -8.91048,0.9672 -3.30284,2.7411 -4.28614,10.18512 -2.04406,15.47426 0.63627,1.50098 0.50493,1.72932 -0.60857,1.05805 -1.20349,-0.72552 -1.21477,-0.60296 -0.074,0.80398 0.74025,0.91299 1.64024,1.60293 2,1.5332 0.35975,-0.0697 1.32909,0.134 2.15409,0.45274 3.07081,1.18642 4.53429,1.43075 5.79313,0.96714 0.71122,-0.26192 1.08926,-0.68009 0.8401,-0.92926 z m -86.13323,-0.6258 c 1.1,-0.60445 2.225,-1.04108 2.5,-0.9703 0.275,0.0708 0.67108,-1.07112 0.88017,-2.53755 1.60557,-11.26043 -0.82347,-16.66624 -7.4888,-16.66624 -2.76548,0 -3.90516,0.43336 -3.94482,1.5 -0.0307,0.825 -0.59369,2.76679 -1.25116,4.3151 -1.680255,3.95693 -1.493985,6.65742 0.74771,10.83994 1.06871,1.99397 1.72496,3.84356 1.45834,4.11019 -0.98308,0.98308 5.16553,0.47105 7.09856,-0.59114 z m 38.5318,-4.42409 c 0.0303,-1.66667 0.0951,-1.66667 1.36024,0 1.75882,2.31696 2.89445,2.22803 2.13425,-0.16712 -0.50325,-1.58562 -0.21229,-1.83216 1.68262,-1.42578 2.22983,0.47821 2.23919,0.44926 0.34995,-1.08288 -1.90377,-1.54393 -1.89896,-1.57422 0.25,-1.57422 1.20512,0 2.19114,-0.45 2.19114,-1 0,-0.55 -0.7301,-1 -1.62244,-1 -1.39701,0 -1.43174,-0.23253 -0.25,-1.67341 1.22261,-1.49073 1.12665,-1.61008 -0.87894,-1.09326 -1.23826,0.31908 -1.9992,0.17212 -1.69098,-0.32659 1.17626,-1.90323 -0.75966,-3.01321 -2.12184,-1.21658 -1.28499,1.69483 -1.37421,1.69863 -1.404,0.0598 -0.0175,-0.9625 -0.53428,-1.75 -1.14843,-1.75 -0.61415,0 -0.8962,0.84295 -0.62677,1.87323 0.39256,1.50116 0.0681,1.76465 -1.63337,1.32658 -1.88276,-0.48473 -1.96779,-0.35711 -0.75079,1.12678 1.18174,1.44088 1.147,1.67341 -0.25,1.67341 -0.89234,0 -1.62244,0.45 -1.62244,1 0,0.55 0.98601,1 2.19113,1 2.14897,0 2.15378,0.0303 0.25,1.57422 -1.9035,1.5437 -1.89997,1.56555 0.1821,1.12677 1.67875,-0.35378 2.02068,-0.0553 1.63337,1.42578 -0.26943,1.03028 0.0126,1.87323 0.62677,1.87323 0.61415,0 1.13094,-0.7875 1.14843,-1.75 z m -14.5969,-7.22525 c 3.27287,-1.24435 3.29313,-3.99218 0.0519,-7.03719 -1.62521,-1.52681 -2.1702,-2.70412 -1.54239,-3.33193 0.62782,-0.62782 1.43172,-0.5884 2.27513,0.11157 0.71734,0.59535 2.64891,1.22877 4.29238,1.40762 2.73967,0.29814 3.01491,0.0451 3.31032,-3.0434 0.7143,-7.46793 -4.60991,-12.81098 -9.54416,-9.57794 -2.43245,1.5938 -2.71673,3.85417 -1.18806,9.44652 0.30707,1.12336 -0.30434,1.42398 -2.43501,1.19725 -3.8388,-0.40849 -7.65497,2.22712 -7.65497,5.28685 0,5.12536 6.22815,7.90045 12.4349,5.54065 z m 39.88083,-0.17445 c 2.64909,-1.39438 3.64868,-2.78393 3.66895,-5.1003 0.0205,-2.34225 -3.50572,-5.75 -5.94989,-5.75 -2.66016,0 -9.03479,5.74035 -9.03479,8.13582 0,3.29119 7.02052,4.9753 11.31574,2.71448 z m -81.462565,-6.34097 c 2.67962,-3.91066 6.14683,-14.37481 6.14683,-18.55137 0,-7.132 -3.88333,-9.81569 -9.0275,-6.23872 -6.41105,4.45789 -9.41768,11.44945 -8.77062,20.395 0.7481,10.34236 6.17376,12.38902 11.65129,4.39509 z m 124.683815,1.41915 c 3.37537,-6.52727 1.07649,-17.20944 -5.08822,-23.64329 -5.02598,-5.2454 -8.90757,-5.80948 -10.56396,-1.53519 -3.54366,9.14429 6.27427,31.04487 12.79545,28.54246 0.76655,-0.29415 2.05208,-1.80794 2.85674,-3.36398 z m -53.53698,-5.05806 c 4.25859,-2.58205 4.96498,-3.58784 4.98469,-7.09737 0.0101,-1.79339 -0.81447,-3.27063 -2.40849,-4.31508 -2.18354,-1.43071 -2.71614,-1.43696 -5.3729,-0.0631 -3.07507,1.59018 -4.1666,3.98405 -4.18965,9.18846 -0.0225,5.0769 1.54096,5.58872 6.98635,2.28709 z m 27,-0.97741 c 0,-1.43762 -1.73512,-1.02567 -2.34208,0.55606 -0.37166,0.96852 -0.0755,1.26467 0.89301,0.89301 0.79699,-0.30583 1.44907,-0.95791 1.44907,-1.44907 z m -80,0.66601 c 0,-0.24254 -0.45001,-0.7191 -1,-1.05902 -0.55,-0.33992 -1,-0.14148 -1,0.44098 0,0.58246 0.45,1.05902 1,1.05902 0.54999,0 1,-0.19844 1,-0.44098 z m 42.38915,-3.87843 c 2.64088,-3.53717 2.67298,-9.43078 0.0617,-11.34015 -4.52221,-3.30673 -10.53921,1.18727 -9.12639,6.81637 0.81913,3.26367 4.58505,8.04001 5.97408,7.57699 0.59385,-0.19795 1.9846,-1.57189 3.09056,-3.05321 z m -36.45082,-0.50786 c 3.93857,-2.11227 7.06166,-7.28988 7.06166,-11.70713 0,-3.92344 -1.58665,-5.4656 -5.62327,-5.4656 -6.15316,0 -12.57676,8.4306 -10.84567,14.2343 0.66419,2.22679 0.6488,2.23135 -0.89583,0.2657 -0.86439,-1.1 -1.58593,-1.64101 -1.60343,-1.20225 -0.0545,1.36693 5.17611,5.70225 6.87982,5.70225 0.89077,0 3.15279,-0.82227 5.02672,-1.82727 z m 74.82724,0.039 c 2.21755,-1.70685 2.2331,-1.85316 0.73354,-6.90271 -1.85202,-6.23644 -6.14853,-10.30902 -10.87585,-10.30902 -4.10967,0 -5.62327,1.54762 -5.62327,5.74966 0,4.55474 2.44797,8.94299 6.29855,11.29082 3.93398,2.39869 6.5125,2.44533 9.46703,0.17123 z M 131.57343,118.0196 c -0.33992,-0.55 -1.15399,-0.99311 -1.80903,-0.98469 -0.7156,0.009 -0.59226,0.40223 0.30903,0.98469 1.92112,1.24153 2.2673,1.24153 1.5,0 z m 39.12646,-0.70687 c -0.25289,-0.25289 0.35032,-1.26991 1.34046,-2.26005 5.54567,-5.54567 -6.70271,-15.752638 -14.5905,-12.15873 -3.15903,1.43935 -3.66201,1.41682 -2.77511,-0.12435 0.39564,-0.6875 0.33417,-0.89948 -0.13661,-0.47106 -1.02131,0.92946 -1.65711,3.46801 -1.55811,6.22106 0.18419,5.12135 0.32334,5.93173 0.80303,4.67687 0.37567,-0.98274 1.11283,-0.75285 2.86545,0.89366 1.55828,1.46393 4.06252,2.38041 7.37378,2.69858 2.75777,0.26498 4.77408,0.87018 4.4807,1.34489 -0.29339,0.4747 0.18435,0.58765 1.06164,0.25101 0.87729,-0.33665 1.38816,-0.81899 1.13527,-1.07188 z m -44.62646,-1.29313 c 0,-0.55 -0.47656,-1 -1.05902,-1 -0.58246,0 -0.7809,0.45 -0.44098,1 0.33992,0.55 0.81648,1 1.05902,1 0.24254,0 0.44098,-0.45 0.44098,-1 z m 16.78449,-1.47212 c 1.61587,-1.35966 3.1504,-2.25966 3.41006,-2 0.4619,0.4619 0.82977,-1.53606 0.83371,-4.52788 0.003,-2.58485 -0.60389,-4.91194 -1.49297,-5.72106 -0.47176,-0.42932 -0.48593,-0.14161 -0.0316,0.641 0.6454,1.11167 0.40883,1.23936 -1.08969,0.58816 -1.05272,-0.45748 -3.48904,-1.01821 -5.41404,-1.24606 -4.06285,-0.48091 -9.69974,2.77405 -11.72068,6.76798 -0.68741,1.35849 -1.25646,1.83248 -1.26458,1.05331 -0.008,-0.77916 -0.25658,-1.17482 -0.55218,-0.87922 -0.97796,0.97796 1.7281,5.57391 3.90152,6.6263 4.06368,1.96767 10.24725,1.36751 13.42041,-1.30253 z m 33.21551,1.47212 c 0,-0.55 -0.45,-1 -1,-1 -0.55,0 -1,0.45 -1,1 0,0.55 0.45,1 1,1 0.55,0 1,-0.45 1,-1 z m -63.3064,-8.20379 c 2.4156,-1.20641 6.62274,-4.55215 9.3492,-7.43498 7.27205,-7.689118 6.6012,-12.361232 -1.77492,-12.361232 -8.01249,0 -16.08543,5.187584 -19.38822,12.458632 -2.286565,5.03386 -2.332135,6.94604 -0.21597,9.0622 1.99598,1.99599 5.62057,1.47636 12.02991,-1.72462 z m 86.73497,1.63236 c 2.02949,-2.02948 1.95558,-3.98593 -0.34169,-9.04466 -3.02156,-6.653688 -11.96917,-12.383912 -19.33722,-12.383912 -9.93583,0 -8.86414,7.889164 2.20812,16.254882 8.2704,6.24875 14.5393,8.10519 17.47079,5.17369 z m -48.42857,-1.42857 c 0,-0.55 -0.47656,-1 -1.05903,-1 -0.58245,0 -0.78089,0.45 -0.44097,1 0.33992,0.55 0.81647,1 1.05902,1 0.24254,0 0.44098,-0.45 0.44098,-1 z m 12.25,-16.405902 c 3.67557,-2.43806 3.55584,-5.73824 -0.32673,-9.0052 -1.69219,-1.4239 -3.37969,-2.6085 -3.75,-2.63245 -0.37031,-0.024 -2.69827,-0.43955 -5.17327,-0.92356 -13.6018,-2.65994 -26.35998,7.92487 -16,13.27438 4.80466,2.480954 21.12974,2.019864 25.25,-0.71317 z M 82.073425,217.52326 c -3.575,-0.71963 -8.975,-2.17638 -12,-3.23724 l -5.5,-1.92883 0.14206,-10.47316 c 0.11751,-8.663 2.2624,-22.10223 3.76776,-23.60759 0.19286,-0.19286 3.21705,1.21046 6.72042,3.11848 3.50336,1.90803 9.63226,4.44796 13.61976,5.64431 l 7.25,2.17517 0.0156,9.1526 c 0.009,5.03393 0.62451,11.7401 1.36871,14.9026 l 1.3531,5.75 -5.11872,-0.094 c -2.81529,-0.0516 -8.04371,-0.68272 -11.61871,-1.40234 z m 13.81681,-3.29993 c 0.81672,-8.49764 -17.79541,-33.20373 -25.01376,-33.20373 -4.65724,0 -4.81488,10.09634 -0.29684,19.01226 5.18486,10.23183 15.26922,18.37573 21.99379,17.76168 2.59477,-0.23694 3.04279,-0.71918 3.31681,-3.57021 z m 105.517005,3.36877 c 0.3664,-0.95484 0.67282,-2.48677 0.68093,-3.40429 0.01,-1.12839 0.42196,-0.85924 1.27317,0.83179 3.94781,7.84273 19.99989,-1.6498 26.38894,-15.60532 1.37371,-3.00059 2.83178,-7.57941 3.24015,-10.17515 l 0.74248,-4.71953 0.82542,6 c 1.35664,9.86151 1.07232,21.53758 -0.54885,22.53953 -3.02639,1.87041 -17.79489,5.20846 -25.32818,5.7248 -7.24821,0.4968 -7.88219,0.39293 -7.27406,-1.19183 z M 58.573425,209.81705 c -11.02044,-5.54082 -28.50063,-18.89176 -28.49929,-21.76704 0.002,-3.78495 5.56198,-21.29913 9.15863,-28.84883 l 3.96285,-8.31843 4.79131,6.31843 c 2.63522,3.47513 8.00392,9.34438 11.93046,13.04277 l 7.13915,6.72436 -1.58724,6.77564 c -0.87299,3.72661 -1.88169,11.57008 -2.24156,17.42993 l -0.65431,10.65429 -4,-2.01112 z m 2.91183,-8.29745 c -0.12708,-8.64886 -8.79699,-35.85564 -13.62303,-42.75 -6.40076,-9.14398 -12.1347,5.59608 -8.38762,21.5618 2.24833,9.57978 6.11084,17.18857 11.6349,22.91968 3.85699,4.00156 5.27969,4.86134 7.6043,4.59552 2.80358,-0.32059 2.85789,-0.44458 2.77145,-6.327 z m 142.005285,-0.92469 0.0829,-11.07531 7.13531,-2.09519 c 3.92442,-1.15235 10.16581,-3.76096 13.86975,-5.79691 3.70396,-2.03594 6.86899,-3.56718 7.03341,-3.40276 0.16443,0.16443 0.63644,1.64358 1.04891,3.28701 0.71261,2.83928 0.66331,2.90141 -0.99015,1.24795 -2.1324,-2.1324 -2.89407,-2.15508 -6.67704,-0.19883 -3.73886,1.93344 -15.07596,16.13383 -18.78876,23.53404 l -2.79722,5.5753 0.0829,-11.0753 z m 33.29982,1.11685 c -0.31782,-5.60569 -1.33819,-13.53368 -2.26749,-17.61776 -1.6289,-7.15868 -1.62241,-7.47384 0.18047,-8.76743 4.08864,-2.93367 14.61852,-14.0213 18.05606,-19.01247 l 3.64081,-5.28629 1.82846,3.00666 c 4.02409,6.61711 9.82269,23.07046 11.27238,31.98513 0.52801,3.24692 0.19511,3.8222 -4.60382,7.95588 -6.16804,5.31298 -16.47454,12.32671 -22.8939,15.57964 l -4.63511,2.34879 -0.57786,-10.19215 z m 11.08601,2.74452 c 5.7631,-4.93301 11.83328,-17.4876 13.37714,-27.66716 2.43558,-16.05928 -3.47223,-26.63084 -9.51119,-17.01952 -6.4508,10.26679 -15.35032,41.4259 -13.33321,46.68241 1.00593,2.62142 5.07535,1.76357 9.46725,-1.99573 z M 24.784175,185.73229 c -8.09199,-10.00701 -14.06429,-18.78924 -18.12752,-26.65641 l -4.78929,-9.27293 1.85303,-4.12681 c 2.8495,-6.34602 11.91323,-20.39103 18.10256,-28.05145 l 5.57202,-6.89637 2.15377,8.89564 c 2.48099,10.24716 5.60338,18.91838 9.18435,25.50597 l 2.50615,4.61033 -3.57128,7.0916 c -1.9642,3.90038 -4.58901,10.15073 -5.83291,13.88967 l -2.26163,6.79807 0,-28 c 0,-29.51834 -0.41477,-32.5 -4.521,-32.5 -1.14734,0 -2.96998,1.54429 -4.42592,3.75 -10.19657,15.4475 -9.56203,47.05913 1.18664,59.11598 l 3.23972,3.63402 2.16126,-2.5 2.16125,-2.5 -0.65098,3.375 c -0.35803,1.85625 -0.65097,3.99375 -0.65097,4.75 0,1.97583 -1.22958,1.63479 -3.28925,-0.91231 z m 245.047065,-8.38675 c -1.49088,-5.82039 -4.53104,-14.34334 -6.7559,-18.93989 l -4.04519,-8.35736 3.07877,-6.09902 c 3.47306,-6.88008 8.35685,-21.2381 9.44752,-27.77503 l 0.72501,-4.34536 3.45526,3.34536 c 4.6169,4.47003 14.21474,18.62201 18.73807,27.62919 l 3.65786,7.28383 -4.71586,9.13078 c -4.71689,9.13277 -13.92819,22.35493 -18.46542,26.5058 l -2.40941,2.20423 -2.7107,-10.58253 z m 8.48299,2.92406 c 6.09866,-6.41352 9.77491,-24.15944 7.89645,-38.11754 -1.31468,-9.76877 -4.48264,-18.39851 -8.2574,-22.49366 l -2.89322,-3.1388 -1.91527,2.26439 c -2.70787,3.20148 -3.32935,11.1878 -2.90417,37.31993 0.44434,27.30962 1.65063,30.92026 8.07361,24.16568 z m -49.48554,-11.5173 c -1.8977,-3.97798 -5.00125,-9.2577 -6.89679,-11.7327 -1.89554,-2.475 -3.80308,-5.08253 -4.23899,-5.79452 -0.50553,-0.82571 0.70871,-3.28293 3.35288,-6.78511 4.02478,-5.33078 7.79494,-12.04795 9.96343,-17.75151 l 1.05992,-2.78781 5.58307,4.80947 c 5.72228,4.9294 14.20507,14.66859 16.48214,18.92333 1.04552,1.95357 1.03043,2.84693 -0.0833,4.92786 -2.20628,4.12249 -12.29289,15.66019 -17.21446,19.69099 l -4.55759,3.73271 -3.45035,-7.23271 z m 9.11335,0.90714 c 5.96405,-6.34844 7.98608,-21.73722 4.17432,-31.76896 -3.51492,-9.25051 -8.39012,-12.32303 -11.65259,-7.34387 -2.06284,3.14828 -3.2078,17.63074 -2.26301,28.62457 1.02168,11.88867 4.70252,15.85178 9.74128,10.48826 z M 58.812755,167.7696 c -7.66599,-7.58626 -13.73933,-15.57884 -13.73933,-18.08109 0,-0.80891 1.98929,-4.10283 4.42064,-7.31983 5.06914,-6.70712 12.57936,-14.27413 12.57936,-12.67447 0,0.59427 -0.67955,1.64447 -1.5101,2.33377 -2.791,2.31632 -4.75803,11.6858 -4.28283,20.40026 0.45152,8.28031 2.10296,12.98728 6.08421,17.34136 2.87514,3.14438 5.35067,2.81133 7.43304,-1 1.49207,-2.73093 1.77568,-5.81246 1.77568,-19.29398 0,-13.90363 -0.24584,-16.41918 -1.8428,-18.85644 -1.52967,-2.33457 -2.33678,-2.71366 -4.75,-2.23102 -3.60901,0.7218 -3.61245,0.52897 -0.0377,-2.11395 l 2.8695,-2.12152 4.13432,8.34342 c 2.27388,4.58888 5.70761,10.22651 7.6305,12.52806 1.92291,2.30156 3.49619,4.36582 3.49619,4.58724 0,0.22141 -2.08982,3.21634 -4.64404,6.65538 -2.55421,3.43905 -5.93369,9.06531 -7.50995,12.50281 -1.57626,3.4375 -3.2967,6.25 -3.82321,6.25 -0.5265,0 -4.25407,-3.2625 -8.28347,-7.25 z m -17.47205,-22.5 c -3.4841,-6.21867 -7.93,-18.2847 -9.72969,-26.40613 l -1.69659,-7.65613 4.68667,-4.34387 c 5.87758,-5.44768 14.51289,-11.520848 22.22873,-15.633352 l 5.94836,-3.17044 0.60066,11.229964 c 0.33037,6.176478 1.32832,14.007628 2.21768,17.402558 l 1.61701,6.17259 -7.98118,7.62518 c -4.38965,4.19384 -9.67097,10.07868 -11.73628,13.0774 -2.0653,2.99873 -3.82243,5.45223 -3.90473,5.45223 -0.0823,0 -1.09509,-1.6875 -2.25064,-3.75 z m 6.52152,-4 c 4.87828,-6.96899 14.46339,-37.22177 14.00739,-44.210478 -0.26181,-4.01258 -0.58853,-4.57365 -2.81469,-4.833604 -6.18383,-0.72208 -16.28176,13.424942 -19.56294,27.407362 -3.76326,16.0367 1.95082,30.80735 8.37024,21.63672 z m 204.212655,1.639 c -2.44689,-3.36011 -7.76096,-9.2024 -11.80903,-12.98285 l -7.36015,-6.87356 1.63662,-7.19568 c 0.90015,-3.95763 1.90587,-11.61496 2.23492,-17.016288 0.32907,-5.40134 1.03805,-9.820624 1.57551,-9.820624 3.18694,0 22.57568,13.103782 28.52617,19.279262 l 3.3055,3.43048 -1.48353,6.39513 c -1.95832,8.44186 -7.07414,22.4545 -9.91003,27.14428 l -2.26707,3.74915 -4.44891,-6.1093 z m 7.72549,-1.59502 c 2.47207,-3.77287 2.38913,-17.7595 -0.15,-25.29398 -4.55622,-13.51988 -12.97311,-24.434482 -18.36353,-23.812892 -2.42899,0.280094 -2.74613,0.768204 -3.02549,4.656444 -0.5278,7.346288 9.99322,40.384178 14.41723,45.272648 2.39684,2.64848 5.04827,2.34237 7.12179,-0.82222 z m -37.33848,-23.37269 c -5.01133,-2.51828 -11.08633,-4.99399 -13.5,-5.50155 l -4.38847,-0.92286 -0.65372,-11.998438 c -0.35955,-6.59914 -1.11564,-13.460944 -1.6802,-15.248444 l -1.02647,-3.25 3.6802,0.0131 c 4.88567,0.0174 21.0599,3.39361 26.84844,5.60427 l 4.61558,1.76271 -0.65958,10.559944 c -0.36276,5.807958 -1.01746,12.134938 -1.45489,14.059938 -0.77709,3.41982 -0.80907,3.37142 -1.39591,-2.11269 -1.13502,-10.60693 -8.91287,-21.851402 -18.28712,-26.437802 -14.96339,-7.3209 -14.04863,4.87599 1.83995,24.532892 2.88183,3.56531 6.76003,7.50695 8.61822,8.75918 3.11875,2.10173 3.55832,2.15898 5.71701,0.74455 2.44092,-1.59935 2.97863,-0.70901 1.5182,2.51387 -0.55872,1.233 -2.30159,0.68498 -9.79124,-3.07871 z M 67.142055,118.2696 c -1.59958,-5.94811 -3.02727,-17.19838 -3.04882,-24.024748 -0.0187,-5.908194 0.13827,-6.334854 2.68626,-7.303604 6.85649,-2.60683 17.46359,-5.03287 24.44533,-5.5911 l 7.65141,-0.61178 -1.38579,5.89062 c -0.76218,3.23984 -1.39281,10.009284 -1.4014,15.043212 l -0.0156,9.1526 -6.93264,2.10572 c -3.81294,1.15815 -9.89441,3.67698 -13.51436,5.5974 -3.61995,1.92042 -6.78292,3.49168 -7.02882,3.49168 -0.2459,0 -0.9009,-1.6875 -1.45555,-3.75 z m 9.50183,-1.73595 c 4.05124,-3.09003 14.33931,-16.630488 17.33018,-22.808808 1.31935,-2.725404 2.10335,-5.961394 1.91617,-7.908974 -0.26524,-2.75969 -0.76549,-3.34787 -3.07307,-3.61329 -9.40038,-1.08124 -23.87846,14.715444 -25.42052,27.735692 -1.03043,8.70037 2.8546,11.47128 9.24724,6.59538 z m -48.93067,-11.27668 c -1.07107,-6.479568 -0.68002,-22.375252 0.79156,-32.175952 1.68681,-11.23416 1.58564,-11.12747 16.56865,-17.47225 9.71182,-4.11261 26.70791,-9.21459 27.62876,-8.29374 0.21842,0.21843 -0.68704,2.84867 -2.01216,5.84498 -3.11119,7.03496 -6.20629,17.58255 -7.67296,26.14817 l -1.16239,6.78858 -5.14063,2.57692 c -6.89306,3.45539 -15.91465,9.592424 -22.76183,15.483982 l -5.62121,4.83668 -0.61779,-3.73737 z m 7.58082,-3.74112 c 3.47439,-3.221628 11.3908,-13.242642 20.93154,-26.496252 9.58442,-13.31428 12.84785,-18.98823 12.84785,-22.33786 0,-2.29775 -0.41519,-2.66214 -3.03325,-2.66214 -7.79203,0 -22.31674,11.92689 -29.95529,24.59763 -6.37429,10.57359 -9.47793,22.793744 -6.97628,27.468112 1.38147,2.5813 2.94244,2.43759 6.18543,-0.56949 z m 231.779395,3.76483 c -7.1395,-6.252198 -16.1606,-12.515138 -22.62598,-15.708182 l -5.96739,-2.94711 -1.71547,-9.32586 c -1.42065,-7.72312 -4.72027,-17.98791 -9.20711,-28.64236 -0.70426,-1.67234 -0.43727,-1.79076 2.61582,-1.16027 7.11775,1.46988 24.02383,7.56258 31.71488,11.42956 8.82269,4.43596 8.34256,3.65196 10.16167,16.59314 1.07211,7.62707 1.16603,26.289142 0.15527,30.850912 l -0.63169,2.8509 -4.5,-3.94073 z m 4.01553,-2.77979 c 3.09509,-3.729358 -1.31095,-19.061172 -8.65927,-30.131892 -7.76666,-11.70095 -21.12644,-22.31986 -28.10626,-22.34001 -2.81933,-0.008 -3.25,0.32847 -3.25,2.54027 0,1.40232 0.73476,3.98982 1.6328,5.75 1.97056,3.86237 16.25987,24.05835 25.05798,35.416044 8.00161,10.329448 10.60533,12.042288 13.32475,8.765588 z M 124.57343,84.710908 c -2.75,-1.03508 -7.70001,-2.44359 -11,-3.13002 l -6,-1.24805 5,-0.74824 c 6.74392,-1.00921 22.09324,-6.03971 26.89476,-8.81435 2.14212,-1.23786 4.51659,-3.19851 5.2766,-4.35701 1.2056,-1.83772 1.15136,-2.391 -0.42531,-4.33811 -5.89901,-7.28497 -29.27383,-2.62154 -38.28127,7.63737 -3.5898,4.08856 -3.68755,3.66512 -0.57157,-2.47614 3.81773,-7.52435 11.38857,-17.21676 13.44817,-17.21676 4.46265,0 22.45572,7.88881 28.62246,12.54911 1.889,1.42755 1.76234,1.66037 -3.32368,6.1095 -2.90813,2.54396 -7.39186,7.61548 -9.96384,11.27003 l -4.67632,6.64465 -5,-1.88198 z m 42,-3.79498 c -2.20001,-3.33233 -6.63978,-8.52189 -9.86619,-11.53235 -5.52708,-5.15717 -5.75831,-5.55597 -4,-6.89899 3.64256,-2.78223 19.94093,-10.39631 24.80331,-11.58733 l 4.93711,-1.20932 3.06289,3.56589 c 4.15317,4.83523 9.2476,13.44444 12.10913,20.46354 l 2.36544,5.80223 -8.03694,1.26539 c -6.87715,1.08277 -13.90903,3.04954 -19.87475,5.5588 -1.05891,0.4454 -2.67625,-1.15074 -5.5,-5.42786 z m 28.56574,-1.93151 c 7.33989,-3.92819 -6.51754,-16.9184 -21.251,-19.92108 -9.41092,-1.91794 -18.81474,0.833 -18.81474,5.50397 0,3.42901 6.95582,7.70903 18.496,11.38088 13.80205,4.39152 17.94713,4.97499 21.56974,3.03623 z m -130.221665,3.28518 c 0.41936,-3.55398 0.4977,-3.6269 1.49882,-1.3951 0.91435,2.03836 1.57398,2.28546 4.9074,1.83835 6.80457,-0.91268 36.292395,-22.2332 39.790645,-28.76974 2.80251,-5.23655 -3.707,-7.13096 -13.882715,-4.04019 -12.45424,3.78286 -23.94558,13.16806 -28.74564,23.47712 -5.16244,11.08736 -0.81151,-7.09987 4.77574,-19.96292 2.17617,-5.01001 2.56482,-5.36074 6.63058,-5.98361 5.23694,-0.80231 31.983115,0.0192 34.430555,1.05746 1.58028,0.67042 1.47574,1.0945 -1.08106,4.38541 -4.55275,5.85994 -9.92514,15.20781 -12.21403,21.25222 l -2.124025,5.60899 -8.29033,0.63724 c -4.55968,0.35049 -12.17831,1.76394 -16.93028,3.14101 -4.75198,1.37707 -8.7678,2.50376 -8.92405,2.50376 -0.15625,0 -0.085,-1.6875 0.15839,-3.75 z m 160.655925,1.14008 c -4.4,-1.32385 -11.65853,-2.69043 -16.13006,-3.03685 l -8.13007,-0.62984 -3.33832,-7.6117 c -1.83608,-4.18643 -5.65274,-11.07496 -8.48145,-15.30784 -4.2927,-6.4236 -4.87664,-7.80943 -3.53161,-8.38121 2.40085,-1.0206 28.24764,-1.77927 33.54636,-0.98468 4.25919,0.63871 4.77702,1.04663 7.06824,5.56816 2.51155,4.95629 7.50496,20.86648 7.48713,23.85575 -0.005,0.90097 -1.06439,-0.62663 -2.35336,-3.39467 -2.75304,-5.91205 -10.4135,-14.09828 -17.27316,-18.45867 -6.44719,-4.0982 -17.40693,-7.4106 -21.79543,-6.58732 -8.80598,1.65202 -3.59915,8.93281 16.70537,23.35935 16.37611,11.63537 22.19327,13.76452 24.50586,8.96944 0.99224,-2.0574 1.09092,-1.929 1.15281,1.5 0.0372,2.0625 -0.26982,3.70435 -0.68232,3.64854 -0.4125,-0.0558 -4.35,-1.18461 -8.75,-2.50846 z m -124.23634,-6.64008 c 0.93692,-2.62585 1.23121,-2.8659 1.53233,-1.25 0.20501,1.1 1.09577,2.5625 1.9795,3.25 1.3828,1.07577 1.16922,1.25 -1.53234,1.25 -3.11277,0 -3.12938,-0.0273 -1.97949,-3.25 z m 45.23634,-15.8754 c -5.73182,-3.78149 -15.03858,-8.21722 -21.75092,-10.36678 l -6.75092,-2.16192 5.81561,-5.74476 c 6.04557,-5.97192 15.96602,-13.35661 22.44144,-16.7052 3.55736,-1.83959 3.92619,-1.85404 7,-0.27439 6.55355,3.36791 15.41631,9.90596 22.00195,16.23082 l 6.75716,6.48958 -6.75716,2.16389 c -6.99099,2.23878 -17.77829,7.35088 -22.41153,10.62082 -3.12268,2.20385 -2.59105,2.22497 -6.34563,-0.25206 z m 26.98777,-10.9444 c 5.64677,-2.7318 4.39373,-6.43634 -3.5363,-10.45479 -12.55998,-6.36462 -33.59804,-5.30056 -43.70147,2.21033 -5.79829,4.31045 -3.85124,7.9677 4.98132,9.35673 8.69209,1.36693 38.76822,0.57527 42.25644,-1.11227 z m 5.29308,-8.0491 c -5.7344,-5.75194 -14.43372,-12.44166 -22.03386,-16.94393 l -5.75302,-3.40803 5.10739,-2.25404 c 8.11087,-3.57955 19.9303,-7.04556 29.96057,-8.78584 l 9.26496,-1.6075 6.45641,6.30912 c 7.02576,6.86548 17.20351,19.90277 20.34579,26.06217 l 1.97616,3.87359 -11.80262,-0.61517 c -7.80038,-0.40657 -14.6972,-0.16655 -20.33871,0.70783 l -8.53607,1.32301 -4.647,-4.66121 z m 39.77801,0.6896 c 1.91998,-1.41374 1.91951,-1.46979 -0.0448,-5.14577 -3.79135,-7.09497 -18.32968,-15.75417 -31.77153,-18.9235 -8.11076,-1.91236 -21.75801,-1.93961 -26.27462,-0.0524 -4.53067,1.89304 -4.61635,4.87369 -0.21788,7.58036 5.14507,3.16609 48.45304,17.1517 55.30887,17.8611 0.58238,0.0603 1.93238,-0.53362 3,-1.31974 z m -112.05886,2.3833 c -2.75,-0.42833 -8.825005,-0.85398 -13.500005,-0.94589 l -8.5,-0.16711 6.04884,-1.31666 c 8.90461,-1.93828 45.426075,-14.18777 49.201165,-16.50233 7.54809,-4.62782 1.70845,-9.15673 -11.76863,-9.12711 -13.34125,0.0293 -27.97539,4.66766 -38.442315,12.18443 -7.75816,5.5715 -11.9634,13.92067 -7.01143,13.92067 0.87472,0 1.31229,0.45 0.97237,1 -0.33992,0.55 -2.20924,1 -4.15404,1 l -3.53601,0 2.72143,-4.75 c 4.19373,-7.31979 12.68098,-18.09301 19.73243,-25.04722 l 6.385275,-6.29722 6.92546,1.09822 c 10.34944,1.64117 21.08238,4.55582 29.38698,7.98036 4.07699,1.68121 7.57397,3.21803 7.77111,3.41516 0.19712,0.19712 -2.24959,1.82706 -5.43711,3.62208 -7.24517,4.08001 -15.45306,10.40758 -21.25373,16.38476 -4.80485,4.95105 -5.50569,5.11104 -15.54179,3.54786 z"
     id="path2987"
     inkscape:connector-curvature="0" />
</svg>
