<?xml version="1.0" encoding="UTF-8" standalone="no"?>
<!-- Created with Inkscape (http://www.inkscape.org/) -->

<svg
   xmlns:dc="http://purl.org/dc/elements/1.1/"
   xmlns:cc="http://creativecommons.org/ns#"
   xmlns:rdf="http://www.w3.org/1999/02/22-rdf-syntax-ns#"
   xmlns:svg="http://www.w3.org/2000/svg"
   xmlns="http://www.w3.org/2000/svg"
   xmlns:sodipodi="http://sodipodi.sourceforge.net/DTD/sodipodi-0.dtd"
   xmlns:inkscape="http://www.inkscape.org/namespaces/inkscape"
   width="945"
   height="652.5"
   id="svg3396"
   version="1.1"
   inkscape:version="0.48.4 r9939"
   sodipodi:docname="hw-libre.svg">
  <defs
     id="defs3398" />
  <sodipodi:namedview
     id="base"
     pagecolor="#ffffff"
     bordercolor="#666666"
     borderopacity="1.0"
     inkscape:pageopacity="0.0"
     inkscape:pageshadow="2"
     inkscape:zoom="0.49497475"
     inkscape:cx="419.03912"
     inkscape:cy="412.04793"
     inkscape:document-units="px"
     inkscape:current-layer="layer1"
     showgrid="false"
     inkscape:window-width="958"
     inkscape:window-height="1024"
     inkscape:window-x="0"
     inkscape:window-y="27"
     inkscape:window-maximized="0" />
  <metadata
     id="metadata3401">
    <rdf:RDF>
      <cc:Work
         rdf:about="">
        <dc:format>image/svg+xml</dc:format>
        <dc:type
           rdf:resource="http://purl.org/dc/dcmitype/StillImage" />
        <dc:title></dc:title>
      </cc:Work>
    </rdf:RDF>
  </metadata>
  <g
     inkscape:label="Capa 1"
     inkscape:groupmode="layer"
     id="layer1"
     transform="translate(0,-399.86218)">
    <g
       id="g4294"
       transform="matrix(0.62457345,-0.75404806,0.75404806,0.62457345,441.99792,-486.48667)"
       inkscape:export-filename="/home/riotgrrl/trabajo/dossier-ST/htmls/img/bioh3.png"
       inkscape:export-xdpi="165.24001"
       inkscape:export-ydpi="165.24001">
      <g
         transform="matrix(0.60631856,0,0,0.60631856,-666.75716,-870.49968)"
         id="g4315">
        <path
           style="fill:#000000"
           d="m -820.51251,2615.1965 c 5.7324,5.4598 5.79704,-0.7396 0.25947,-25.1421 -5.82818,-25.6866 -5.57155,-33.874 1.24229,-39.5664 4.725,-3.9477 8.11411,-9.7153 7.53114,-12.8169 -0.58296,-3.1016 -3.84655,-3.1537 -7.25249,-0.1158 -3.40585,3.0379 -1.22181,-4.3773 4.85706,-16.4789 6.07711,-12.1013 15.45637,-23.7705 20.84219,-25.9314 5.38651,-2.161 17.67072,-11.2416 27.29842,-20.1793 23.25771,-21.5899 76.22387,-41.3377 107.88175,-40.2221 39.64586,1.3972 82.98293,22.8384 117.62778,58.1977 6.509,6.6429 12.27172,14.6704 12.80709,17.8387 0.53744,3.1679 -8.31619,-4.2766 -19.67007,-16.5441 -84.13791,-90.9132 -231.92797,-50.7762 -260.46725,70.7381 -12.39521,52.7766 18.2085,125.5652 64.79607,154.1142 7.07483,4.3351 11.8992,10.3828 10.72153,13.4392 -1.17766,3.0566 -0.19855,4.4769 2.1759,3.1564 2.37453,-1.3205 4.71623,-0.2762 5.2043,2.3205 1.28328,6.8275 41.93329,18.5893 55.05483,15.9298 11.14451,-2.259 11.14451,-2.259 -0.92407,-4.9164 -7.47159,-1.6453 1.96787,-4.1798 24.77978,-6.6536 25.74793,-2.7921 43.75942,-8.075 59.78993,-17.5361 12.61789,-7.4472 24.13107,-12.7273 25.58464,-11.7336 5.15053,3.5209 -47.18827,29.8411 -69.43575,34.9178 l -22.58534,5.1539 28.65591,-1.4191 28.6559,-1.4191 -27.49133,6.076 c -15.24469,3.3691 -24.73738,7.7042 -21.30908,9.731 10.98753,6.4959 75.54324,15.6912 90.46761,12.8861 18.71077,-3.5168 94.62063,-77.3288 96.65476,-93.9834 2.31771,-18.977 -11.64019,-84.1101 -22.50599,-105.0199 -5.2616,-10.1253 -11.25758,-27.408 -13.32475,-38.4061 -5.43182,-28.8993 -42.82207,-72.1129 -76.90501,-88.8824 -15.75072,-7.7498 -30.76331,-17.5394 -33.36038,-21.7547 -6.87032,-11.1508 3.69934,-26.448 18.24323,-26.4031 11.7482,0.036 11.95018,-1.0804 3.20541,-17.7318 -8.01971,-15.2711 -8.01894,-19.6925 0.008,-31.435 7.71465,-11.2862 11.61115,-12.9479 22.38815,-9.548 7.17601,2.264 13.51495,6.6044 14.08651,9.6453 0.57155,3.0408 7.77389,6.7372 16.00515,8.214 8.23126,1.4769 15.47852,5.4122 16.10497,8.7451 0.62645,3.333 16.556,17.241 35.39815,30.9069 l 34.25974,24.8469 7.41786,-13.7455 c 9.71521,-18.0032 24.06445,-15.0821 35.35422,7.1973 4.86519,9.6013 20.6449,37.3649 35.06586,61.697 18.93004,31.9404 28.18044,54.3254 33.27171,80.5142 4.04459,20.8112 11.5745,41.5885 17.66159,48.7411 5.83544,6.8569 12.86168,23.9552 15.61362,37.9962 4.50343,22.9752 27.40858,93.2558 53.93271,165.4767 6.15521,16.7596 14.91457,29.4605 23.52214,34.1055 13.24524,7.1481 14.50807,11.6234 36.91175,130.8195 l 23.19728,123.4184 -38.30771,7.2002 -38.30712,7.2 -31.80434,-33.9916 c -66.05225,-70.5961 -126.53488,-118.8453 -166.92499,-133.1632 -20.91818,-7.4149 -49.4698,-20.829 -63.44798,-29.8091 -13.97886,-8.98 -40.55495,-22.9601 -59.05797,-31.0668 -54.66696,-23.9516 -104.07911,-44.2092 -113.83675,-46.6698 -5.00968,-1.2633 -23.63013,-12.1678 -41.37884,-24.2323 -17.74871,-12.0644 -34.4047,-21.5341 -37.01274,-21.0439 -8.07343,1.5174 -21.28169,-18.991 -19.8391,-30.803 0.75315,-6.1677 7.14645,-14.4295 14.20655,-18.3592 l 12.83718,-7.1449 -17.83951,-14.0005 c -9.81117,-7.7004 -24.78121,-23.9541 -33.26525,-36.1197 -17.11045,-24.5336 -38.50821,-89.7885 -25.32633,-77.2349 z m 17.69595,-92.9862 c 5.10048,-6.7171 8.67231,-14.9502 7.93764,-18.2959 -0.73308,-3.3459 -5.16509,0.7817 -9.84509,9.1724 -11.00726,19.7338 -9.95854,24.7503 1.90578,9.1239 z m 219.20225,214.656 c 8.83688,-4.1771 11.15475,-3.8599 7.78783,1.0654 -2.63651,3.8569 -8.29799,6.5331 -12.58115,5.9471 -4.44688,-0.6082 -2.39026,-3.6169 4.79332,-7.0125 z m 52.60397,-66.3121 c 17.90573,-28.9214 23.79024,-56.8204 20.93219,-99.2445 -2.16981,-32.2164 -1.98277,-32.7723 3.11516,-9.2623 2.98464,13.7557 4.35849,39.3184 3.05642,56.8055 -1.30208,17.487 -0.91334,33.3889 0.86382,35.3377 1.77717,1.9488 -1.20649,4.0205 -6.63028,4.6038 -6.46938,0.6959 -8.65872,4.3308 -6.36458,10.5691 2.26294,6.1525 -1.41792,12.516 -10.42816,18.0293 -19.53091,11.9504 -20.39226,8.7584 -4.54457,-16.8386 z"
           id="path3869"
           inkscape:connector-curvature="0" />
        <path
           style="fill:#000000"
           d="m -781.33236,2590.2204 c -1.61696,-3.3977 -2.57986,-9.2049 -2.09299,-12.6232 0.15658,-1.0993 1.32619,-4.4558 2.59912,-7.4587 2.86446,-6.7574 7.01111,-9.9538 15.85236,-12.2195 5.35557,-1.3725 6.98476,-1.2455 12.76956,0.9949 7.40651,2.8685 10.20955,5.4948 13.01151,12.191 l 1.90834,4.5603 17.08334,1.0776 17.08349,1.0776 22.5015,25.4695 22.50157,25.4696 -1.05698,17.7546 -1.05698,17.7546 3.71307,2.2494 3.71308,2.2493 10.46965,-9.3043 10.46965,-9.3043 -1.45062,-5.0019 c -2.94846,-10.167 3.34306,-22.255 13.73996,-26.3987 l 3.94753,-1.5733 1.72788,-27.8514 1.72726,-27.8508 -4.46209,-2.7297 c -13.14404,-8.0405 -14.94755,-26.3216 -3.60417,-36.5325 8.18169,-7.3647 18.85062,-8.2413 28.20963,-2.3177 9.29663,5.8841 12.6947,16.1161 8.88933,26.7667 -2.46349,6.8949 -8.70482,12.8484 -15.324,14.6172 l -4.45628,1.1909 -1.71093,27.211 -1.71085,27.211 4.27692,1.9313 c 5.84892,2.6414 11.82541,9.6009 13.246,15.4249 2.23271,9.1535 -0.42129,17.4569 -7.5753,23.7008 -7.29664,6.3689 -17.33297,7.2246 -26.76961,2.2832 l -4.06932,-2.1309 -9.14401,8.4505 -9.144,8.4504 1.56744,3.7826 c 6.61751,15.9699 -6.20097,33.9641 -23.00212,32.2896 -14.17894,-1.4131 -23.67094,-14.3261 -20.56255,-27.9733 0.55151,-2.4214 1.70745,-5.4297 2.5689,-6.6853 l 1.56618,-2.283 -8.85132,-9.6932 -8.85147,-9.6933 -4.88113,1.4552 c -9.24331,2.7558 -21.04702,-1.2655 -25.822,-8.7971 -7.80667,-12.3136 -3.29759,-28.5337 9.44172,-33.9637 15.94438,-6.7962 32.55865,3.6195 32.58921,20.4306 0.006,3.5725 -0.87724,7.6403 -2.21464,10.1945 l -2.22545,4.2499 8.71531,9.8649 8.71524,9.8648 3.58437,-1.4176 3.58432,-1.4177 1.05761,-16.7388 1.05761,-16.7388 -19.87697,-22.4988 -19.87691,-22.4987 -15.07023,-0.8216 -15.07029,-0.8217 -1.98049,4.3247 c -2.66325,5.8158 -9.37949,11.6576 -15.09314,13.1279 -5.74692,1.4788 -14.4539,-0.045 -19.05506,-3.3346 -4.45706,-3.1866 -5.7792,-4.7081 -7.82241,-9.0007 z m 20.65682,0.2806 c 7.36203,0.4555 12.74548,-8.3236 9.2595,-15.1 -5.84595,-11.3641 -22.95298,-3.2937 -18.59668,8.7733 1.04595,2.8972 5.7827,6.1068 9.33718,6.3267 z m 47.40467,53.7618 c 5.77055,0.357 8.76459,-1.8533 10.25841,-7.5733 1.9284,-7.3841 -3.79577,-13.6138 -11.33445,-12.3353 -5.04322,0.8551 -8.25118,4.7583 -8.3762,10.1913 -0.13566,5.898 3.20332,9.3306 9.45224,9.7173 z m 47.03691,53.9999 c 3.52755,0.4181 4.87604,0.019 7.36097,-2.1759 5.89272,-5.206 5.26725,-12.8485 -1.39024,-16.9863 -6.53298,-4.0604 -15.09346,1.4374 -14.89751,9.5675 0.13244,5.4946 3.32977,8.9313 8.92678,9.5947 z m 53.44119,-47.6962 c 4.80313,0.7145 8.50678,-1.2236 10.60262,-5.5484 2.09696,-4.3271 1.91633,-6.7768 -0.79869,-10.8293 -2.02961,-3.0295 -2.76334,-3.394 -7.41287,-3.6816 -4.72124,-0.2921 -5.39797,-0.046 -7.95339,2.896 -5.60938,6.4573 -2.52988,15.9594 5.56233,17.1633 z m 6.70118,-61.0958 c 0.18714,-0.6189 0.20882,-1.274 0.0483,-1.4557 -0.16063,-0.1819 -0.62922,-0.033 -1.04141,0.3316 -0.41218,0.3641 -0.43387,1.0192 -0.0483,1.4557 0.38567,0.4365 0.85427,0.2873 1.04141,-0.3316 z m -2.01965,-40.9064 c 8.46422,3.6199 17.0801,-6.7306 12.28678,-14.7605 -3.6234,-6.0701 -12.30541,-6.7838 -16.62022,-1.3663 -4.80413,6.0321 -2.92577,13.0223 4.33344,16.1268 z"
           id="path4118"
           inkscape:connector-curvature="0" />
      </g>
      <path
         inkscape:connector-curvature="0"
         id="path4280"
         d="m -1133.5414,695.84997 c -0.5799,-2.07657 -0.2,-3.95676 1.1401,-5.64331 1.7263,-2.17254 5.1593,-2.95948 7.5089,-1.72138 1.3253,0.69838 2.5173,2.19267 2.9254,3.66742 0.3383,1.22254 0.2055,3.14308 -0.2925,4.23092 -1.9173,4.188 -6.6226,4.87526 -10.0806,1.47233 -0.7884,-0.77584 -0.9185,-0.99297 -1.2013,-2.00598 z"
         style="fill:#ff0066;fill-opacity:1;stroke:none" />
      <path
         inkscape:connector-curvature="0"
         id="path4282"
         d="m -1104.2897,729.4702 c -0.61,-1.61114 -0.4605,-4.0551 0.3478,-5.68777 0.5034,-1.01642 1.8848,-2.21235 3.0914,-2.67599 1.2151,-0.46703 3.1689,-0.45662 4.5285,0.0243 0.9156,0.32386 1.1226,0.47875 2.0723,1.55069 0.9468,1.06871 1.0787,1.29757 1.2866,2.23124 0.2998,1.34667 0.1357,3.00734 -0.4432,4.48511 -0.6062,1.547 -1.8232,2.71456 -3.1734,3.04427 -1.2842,0.31371 -3.7045,0.1545 -4.9085,-0.32281 -1.2499,-0.49544 -2.3965,-1.5796 -2.8013,-2.64885 l 0,0 z"
         style="fill:#ffcc00;fill-opacity:1;stroke:none" />
      <path
         inkscape:connector-curvature="0"
         id="path4284"
         d="m -1075.3225,762.10379 c -1.0992,-2.74031 -0.2289,-6.04681 2.041,-7.75415 2.169,-1.63142 4.7934,-1.57909 7.0946,0.1416 1.097,0.82026 1.7494,1.76325 2.1862,3.15959 0.6778,2.16699 0.026,4.24959 -1.9197,6.13665 -1.075,1.0419 -1.2633,1.16324 -2.2141,1.42675 -2.7586,0.76333 -6.238,-0.74231 -7.188,-3.11044 z"
         style="fill:#00ccff;fill-opacity:1;stroke:none" />
      <path
         inkscape:connector-curvature="0"
         id="path4286"
         d="m -1042.7634,732.51774 c -0.3792,-1.16672 -0.3266,-3.13774 0.1139,-4.25982 0.5704,-1.45308 1.9761,-3.06118 3.0752,-3.51792 1.1902,-0.49464 4.404,-0.30487 5.6245,0.33207 0.8691,0.45356 1.0604,0.66764 1.8846,2.10898 0.5044,0.88225 0.9623,2.02716 1.0174,2.54415 0.1387,1.30101 -1.1564,4.31864 -2.2811,5.31503 -1.6583,1.46916 -4.3721,1.74666 -6.5923,0.67412 -1.0499,-0.50717 -2.497,-2.13478 -2.8425,-3.19636 z"
         style="fill:#ff0066;fill-opacity:1;stroke:none" />
      <path
         inkscape:connector-curvature="0"
         id="path4288"
         d="m -1038.8523,671.5052 c -1.0958,-2.09089 -0.5513,-4.90843 1.3184,-6.82275 1.2736,-1.30396 2.4555,-1.81719 4.1474,-1.80068 1.9808,0.0192 3.2712,0.59508 4.5624,2.03584 0.8959,0.99926 1.1311,1.44772 1.3519,2.57396 0.7718,3.93702 -2.4667,7.76305 -6.2639,7.40063 -1.8079,-0.17264 -4.2943,-1.81861 -5.1162,-3.387 z"
         style="fill:#ffcc00;fill-opacity:1;stroke:none" />
    </g>
  </g>
</svg>
